<svg xmlns="http://www.w3.org/2000/svg" viewBox="0 0 36 36"><path fill="#EFEFEF" d="M34.904 20.355c-3.782-5.791-3.38-11.727-5.203-14.518-1.823-2.791-7.256-7.603-20.093.782s-9.572 17.5-7.566 20.569c9.388 14.372 39.561 3.423 32.862-6.833z"/><path fill="#A4AFC1" d="m8.116 3.547 1.415-1.415.707.707-1.415 1.415zM4.05 7.613l1.415-1.415.707.707L4.757 8.32zM4.05 2.662l.707-.707L6.172 3.37l-.707.707zM27.029 15.002c-.827 0-1.5-.673-1.5-1.5s.673-1.5 1.5-1.5 1.5.673 1.5 1.5-.673 1.5-1.5 1.5zm0-2a.5.5 0 1 0 0 1 .5.5 0 0 0 0-1z"/><path fill="#2FDF84" d="M22.365 16.34a6.939 6.939 0 0 0 .605-2.837v-.02c0-3.718-2.929-6.733-6.542-6.733H8.759v13.504h7.651c2.657 0 4.92-1.603 5.955-3.914z"/><path fill="#F3F3F1" d="M26.25 22.517V22.481a6.764 6.764 0 0 0-2.052-4.877l-.023.05c-1.47 2.871-4.393 4.832-7.765 4.844H8.75v6.752h10.958c3.613 0 6.542-3.015 6.542-6.733z"/><path fill="#00B871" d="M8.759 6.75h2.25v13.504h-2.25z"/><path fill="#D5DBE1" d="M8.75 22.498H11v6.752H8.75zM25.408 19.189a6.715 6.715 0 0 0-1.21-1.585l-.023.05c-1.47 2.871-4.393 4.832-7.765 4.844h2.25c2.723-.01 5.139-1.304 6.748-3.309z"/><path d="M16.41 21.004H8.76a.75.75 0 0 1-.75-.75V6.75A.749.749 0 0 1 8.759 6h7.64c4.05 0 7.321 3.357 7.321 7.483a7.692 7.692 0 0 1-.671 3.166c-1.186 2.645-3.792 4.355-6.639 4.355zm-6.901-1.5h6.9c2.258 0 4.327-1.362 5.271-3.47l.002-.004a6.174 6.174 0 0 0 .537-2.528c0-3.317-2.598-6.001-5.792-6.001H9.509v12.003z"/><path d="M19.708 30H8.75a.75.75 0 0 1-.75-.75v-6.752a.75.75 0 0 1 .75-.75h7.66c2.982-.011 5.703-1.71 7.098-4.436a.803.803 0 0 1 .556-.423c.233-.04.485.011.656.176A7.47 7.47 0 0 1 27 22.481v.036C27 26.643 23.729 30 19.708 30zM9.5 28.5h10.189c3.213 0 5.811-2.684 5.811-5.983v-.008c0-1.348-.413-2.601-1.178-3.631-1.787 2.73-4.72 4.358-7.91 4.37H9.5V28.5z"/></svg>