<svg xmlns="http://www.w3.org/2000/svg" enable-background="new 0 0 24 24" viewBox="0 0 24 24"><path fill="#F3BD19" d="M12.502,12.829H1.374V0h3.36c4.32,0,7.767,3.491,7.767,7.768V12.829L12.502,12.829z"/><path fill="#D4A516" d="M4.734,0h-3.36v12.829h5.131V0.201C5.937,0.07,5.345,0,4.734,0L4.734,0z"/><polygon fill="#3EBEB0" points="12.502 12.829 22.669 12.829 22.669 24 12.502 24 12.502 12.829"/><polygon fill="#36A599" points="17.365 12.829 12.502 12.829 12.502 24 17.365 24 17.365 12.829"/><path fill="#231F20" d="M12.502,24C6.349,24,1.331,19.026,1.331,12.829h11.171V24L12.502,24z"/><path fill="#3F3C3D" d="M12.502,12.829h-6v9.426c1.735,1.105,3.794,1.745,6,1.745l0,0V12.829L12.502,12.829z"/></svg>